<mxfile host="app.diagrams.net" modified="2024-06-23T15:59:29.689Z" agent="Mozilla/5.0 (X11; Linux x86_64) AppleWebKit/537.36 (KHTML, like Gecko) Chrome/125.0.0.0 Safari/537.36" etag="FV6xU5EtC_lX_mLuHyTq" version="24.6.2" type="device">
  <diagram name="PÃ¡gina-1" id="jEcNdHQKMZ-bivYUme_w">
    <mxGraphModel dx="2593" dy="949" grid="1" gridSize="10" guides="1" tooltips="1" connect="1" arrows="1" fold="1" page="1" pageScale="1" pageWidth="827" pageHeight="1169" math="0" shadow="0">
      <root>
        <mxCell id="0" />
        <mxCell id="1" parent="0" />
        <mxCell id="BsvsJpRvTjYnSgwSxDMs-58" value="" style="rounded=1;whiteSpace=wrap;html=1;" vertex="1" parent="1">
          <mxGeometry x="50" y="30" width="1080" height="630" as="geometry" />
        </mxCell>
        <mxCell id="BsvsJpRvTjYnSgwSxDMs-22" value="" style="edgeStyle=orthogonalEdgeStyle;rounded=0;orthogonalLoop=1;jettySize=auto;html=1;" edge="1" parent="1" source="BsvsJpRvTjYnSgwSxDMs-2" target="BsvsJpRvTjYnSgwSxDMs-12">
          <mxGeometry relative="1" as="geometry" />
        </mxCell>
        <mxCell id="BsvsJpRvTjYnSgwSxDMs-2" value="Google Sheet" style="shape=image;verticalLabelPosition=bottom;labelBackgroundColor=default;verticalAlign=top;aspect=fixed;imageAspect=0;image=https://res-academy.cache.wpscdn.com/images/seo_posts/20230913/b9788edc42ea71aad4959f1222b27b34.png;" vertex="1" parent="1">
          <mxGeometry x="100" y="92" width="115.99" height="106" as="geometry" />
        </mxCell>
        <mxCell id="BsvsJpRvTjYnSgwSxDMs-5" value="" style="group" vertex="1" connectable="0" parent="1">
          <mxGeometry x="310" y="50" width="128" height="168" as="geometry" />
        </mxCell>
        <mxCell id="BsvsJpRvTjYnSgwSxDMs-3" value="" style="shape=image;html=1;verticalAlign=top;verticalLabelPosition=bottom;labelBackgroundColor=#ffffff;imageAspect=0;aspect=fixed;image=https://cdn3.iconfinder.com/data/icons/document-icons-2/30/647702-excel-128.png" vertex="1" parent="BsvsJpRvTjYnSgwSxDMs-5">
          <mxGeometry width="128" height="128" as="geometry" />
        </mxCell>
        <mxCell id="BsvsJpRvTjYnSgwSxDMs-4" value="Excel" style="text;html=1;align=center;verticalAlign=middle;resizable=0;points=[];autosize=1;strokeColor=none;fillColor=none;" vertex="1" parent="BsvsJpRvTjYnSgwSxDMs-5">
          <mxGeometry x="50" y="138" width="50" height="30" as="geometry" />
        </mxCell>
        <mxCell id="BsvsJpRvTjYnSgwSxDMs-24" style="edgeStyle=orthogonalEdgeStyle;rounded=0;orthogonalLoop=1;jettySize=auto;html=1;entryX=0.5;entryY=0;entryDx=0;entryDy=0;" edge="1" parent="1" source="BsvsJpRvTjYnSgwSxDMs-12" target="BsvsJpRvTjYnSgwSxDMs-23">
          <mxGeometry relative="1" as="geometry">
            <Array as="points">
              <mxPoint x="158" y="430" />
              <mxPoint x="420" y="430" />
            </Array>
          </mxGeometry>
        </mxCell>
        <mxCell id="BsvsJpRvTjYnSgwSxDMs-12" value="GoogleSheetExtractor" style="rounded=1;whiteSpace=wrap;html=1;" vertex="1" parent="1">
          <mxGeometry x="92.99" y="280" width="130" height="60" as="geometry" />
        </mxCell>
        <mxCell id="BsvsJpRvTjYnSgwSxDMs-25" style="edgeStyle=orthogonalEdgeStyle;rounded=0;orthogonalLoop=1;jettySize=auto;html=1;" edge="1" parent="1" source="BsvsJpRvTjYnSgwSxDMs-13" target="BsvsJpRvTjYnSgwSxDMs-23">
          <mxGeometry relative="1" as="geometry">
            <Array as="points">
              <mxPoint x="380" y="430" />
              <mxPoint x="420" y="430" />
            </Array>
          </mxGeometry>
        </mxCell>
        <mxCell id="BsvsJpRvTjYnSgwSxDMs-13" value="MicrosoftExcelExtractor" style="rounded=1;whiteSpace=wrap;html=1;" vertex="1" parent="1">
          <mxGeometry x="310" y="280" width="140" height="60" as="geometry" />
        </mxCell>
        <mxCell id="BsvsJpRvTjYnSgwSxDMs-26" style="edgeStyle=orthogonalEdgeStyle;rounded=0;orthogonalLoop=1;jettySize=auto;html=1;entryX=0.5;entryY=0;entryDx=0;entryDy=0;" edge="1" parent="1" source="BsvsJpRvTjYnSgwSxDMs-14" target="BsvsJpRvTjYnSgwSxDMs-23">
          <mxGeometry relative="1" as="geometry">
            <Array as="points">
              <mxPoint x="560" y="430" />
              <mxPoint x="420" y="430" />
            </Array>
          </mxGeometry>
        </mxCell>
        <mxCell id="BsvsJpRvTjYnSgwSxDMs-14" value="MySLQExtractor" style="rounded=1;whiteSpace=wrap;html=1;" vertex="1" parent="1">
          <mxGeometry x="490" y="280" width="140" height="60" as="geometry" />
        </mxCell>
        <mxCell id="BsvsJpRvTjYnSgwSxDMs-27" style="edgeStyle=orthogonalEdgeStyle;rounded=0;orthogonalLoop=1;jettySize=auto;html=1;" edge="1" parent="1" source="BsvsJpRvTjYnSgwSxDMs-15">
          <mxGeometry relative="1" as="geometry">
            <mxPoint x="420" y="460" as="targetPoint" />
            <Array as="points">
              <mxPoint x="730" y="430" />
              <mxPoint x="421" y="430" />
              <mxPoint x="421" y="460" />
            </Array>
          </mxGeometry>
        </mxCell>
        <mxCell id="BsvsJpRvTjYnSgwSxDMs-15" value="PostgresExtractor" style="rounded=1;whiteSpace=wrap;html=1;" vertex="1" parent="1">
          <mxGeometry x="660" y="280" width="140" height="60" as="geometry" />
        </mxCell>
        <mxCell id="BsvsJpRvTjYnSgwSxDMs-17" value="" style="group" vertex="1" connectable="0" parent="1">
          <mxGeometry x="530" y="95.88" width="60" height="118" as="geometry" />
        </mxCell>
        <mxCell id="BsvsJpRvTjYnSgwSxDMs-8" value="" style="outlineConnect=0;dashed=0;verticalLabelPosition=bottom;verticalAlign=top;align=center;html=1;shape=mxgraph.aws3.mysql_db_instance;fillColor=#2E73B8;gradientColor=none;" vertex="1" parent="BsvsJpRvTjYnSgwSxDMs-17">
          <mxGeometry width="60" height="64.5" as="geometry" />
        </mxCell>
        <mxCell id="BsvsJpRvTjYnSgwSxDMs-10" value="MySQL" style="text;html=1;align=center;verticalAlign=middle;resizable=0;points=[];autosize=1;strokeColor=none;fillColor=none;" vertex="1" parent="BsvsJpRvTjYnSgwSxDMs-17">
          <mxGeometry y="88" width="60" height="30" as="geometry" />
        </mxCell>
        <mxCell id="BsvsJpRvTjYnSgwSxDMs-18" value="" style="group" vertex="1" connectable="0" parent="1">
          <mxGeometry x="695" y="94.13" width="70" height="119.75" as="geometry" />
        </mxCell>
        <mxCell id="BsvsJpRvTjYnSgwSxDMs-9" value="" style="image;aspect=fixed;html=1;points=[];align=center;fontSize=12;image=img/lib/azure2/databases/Azure_Database_PostgreSQL_Server_Group.svg;" vertex="1" parent="BsvsJpRvTjYnSgwSxDMs-18">
          <mxGeometry x="10" width="60" height="68" as="geometry" />
        </mxCell>
        <mxCell id="BsvsJpRvTjYnSgwSxDMs-11" value="Postgres" style="text;html=1;align=center;verticalAlign=middle;resizable=0;points=[];autosize=1;strokeColor=none;fillColor=none;" vertex="1" parent="BsvsJpRvTjYnSgwSxDMs-18">
          <mxGeometry y="89.75" width="70" height="30" as="geometry" />
        </mxCell>
        <mxCell id="BsvsJpRvTjYnSgwSxDMs-19" value="" style="edgeStyle=orthogonalEdgeStyle;rounded=0;orthogonalLoop=1;jettySize=auto;html=1;" edge="1" parent="1" source="BsvsJpRvTjYnSgwSxDMs-11" target="BsvsJpRvTjYnSgwSxDMs-15">
          <mxGeometry relative="1" as="geometry" />
        </mxCell>
        <mxCell id="BsvsJpRvTjYnSgwSxDMs-20" value="" style="edgeStyle=orthogonalEdgeStyle;rounded=0;orthogonalLoop=1;jettySize=auto;html=1;" edge="1" parent="1" source="BsvsJpRvTjYnSgwSxDMs-10" target="BsvsJpRvTjYnSgwSxDMs-14">
          <mxGeometry relative="1" as="geometry" />
        </mxCell>
        <mxCell id="BsvsJpRvTjYnSgwSxDMs-21" value="" style="edgeStyle=orthogonalEdgeStyle;rounded=0;orthogonalLoop=1;jettySize=auto;html=1;" edge="1" parent="1" source="BsvsJpRvTjYnSgwSxDMs-4" target="BsvsJpRvTjYnSgwSxDMs-13">
          <mxGeometry relative="1" as="geometry" />
        </mxCell>
        <mxCell id="BsvsJpRvTjYnSgwSxDMs-23" value="Extractor" style="rounded=1;whiteSpace=wrap;html=1;" vertex="1" parent="1">
          <mxGeometry x="354" y="540" width="120" height="60" as="geometry" />
        </mxCell>
        <mxCell id="BsvsJpRvTjYnSgwSxDMs-31" value="Syncronizer" style="rounded=1;whiteSpace=wrap;html=1;" vertex="1" parent="1">
          <mxGeometry x="170" y="540" width="120" height="60" as="geometry" />
        </mxCell>
        <mxCell id="BsvsJpRvTjYnSgwSxDMs-36" value="EventEmiter" style="rounded=1;whiteSpace=wrap;html=1;" vertex="1" parent="1">
          <mxGeometry x="540" y="540" width="120" height="60" as="geometry" />
        </mxCell>
        <mxCell id="BsvsJpRvTjYnSgwSxDMs-38" value="&lt;div&gt;DebtService&lt;/div&gt;" style="rounded=1;whiteSpace=wrap;html=1;rotation=0;" vertex="1" parent="1">
          <mxGeometry x="460" y="690" width="260" height="60" as="geometry" />
        </mxCell>
        <mxCell id="BsvsJpRvTjYnSgwSxDMs-43" value="DebtRepository" style="rounded=1;whiteSpace=wrap;html=1;" vertex="1" parent="1">
          <mxGeometry x="720" y="540" width="120" height="60" as="geometry" />
        </mxCell>
        <mxCell id="BsvsJpRvTjYnSgwSxDMs-49" style="edgeStyle=orthogonalEdgeStyle;rounded=0;orthogonalLoop=1;jettySize=auto;html=1;entryX=1;entryY=0.5;entryDx=0;entryDy=0;" edge="1" parent="1" source="BsvsJpRvTjYnSgwSxDMs-44" target="BsvsJpRvTjYnSgwSxDMs-43">
          <mxGeometry relative="1" as="geometry" />
        </mxCell>
        <mxCell id="BsvsJpRvTjYnSgwSxDMs-44" value="MongoDebtRepository" style="rounded=1;whiteSpace=wrap;html=1;" vertex="1" parent="1">
          <mxGeometry x="910" y="540" width="160" height="60" as="geometry" />
        </mxCell>
        <mxCell id="BsvsJpRvTjYnSgwSxDMs-48" value="" style="group" vertex="1" connectable="0" parent="1">
          <mxGeometry x="905" y="460" width="170" height="50" as="geometry" />
        </mxCell>
        <mxCell id="BsvsJpRvTjYnSgwSxDMs-46" value="" style="rounded=1;whiteSpace=wrap;html=1;fillColor=#000000;" vertex="1" parent="BsvsJpRvTjYnSgwSxDMs-48">
          <mxGeometry width="170" height="50" as="geometry" />
        </mxCell>
        <mxCell id="BsvsJpRvTjYnSgwSxDMs-45" value="" style="shape=image;verticalLabelPosition=bottom;labelBackgroundColor=default;verticalAlign=top;aspect=fixed;imageAspect=0;image=https://www.helenjoscott.com/wp-content/uploads/2022/01/mongodb_standard.png;" vertex="1" parent="BsvsJpRvTjYnSgwSxDMs-48">
          <mxGeometry x="8.53399999999997" y="2.857142857142857" width="152.93200000000002" height="42.160000000000004" as="geometry" />
        </mxCell>
        <mxCell id="BsvsJpRvTjYnSgwSxDMs-50" value="" style="edgeStyle=orthogonalEdgeStyle;rounded=0;orthogonalLoop=1;jettySize=auto;html=1;" edge="1" parent="1" source="BsvsJpRvTjYnSgwSxDMs-45" target="BsvsJpRvTjYnSgwSxDMs-44">
          <mxGeometry relative="1" as="geometry" />
        </mxCell>
        <mxCell id="BsvsJpRvTjYnSgwSxDMs-59" value="ClientsRepository" style="rounded=1;whiteSpace=wrap;html=1;" vertex="1" parent="1">
          <mxGeometry x="1230" y="540" width="120" height="60" as="geometry" />
        </mxCell>
        <mxCell id="BsvsJpRvTjYnSgwSxDMs-60" value="MongoClientsRepository" style="rounded=1;whiteSpace=wrap;html=1;" vertex="1" parent="1">
          <mxGeometry x="1420" y="540" width="160" height="60" as="geometry" />
        </mxCell>
        <mxCell id="BsvsJpRvTjYnSgwSxDMs-61" value="" style="group" vertex="1" connectable="0" parent="1">
          <mxGeometry x="1415" y="460" width="170" height="50" as="geometry" />
        </mxCell>
        <mxCell id="BsvsJpRvTjYnSgwSxDMs-62" value="" style="rounded=1;whiteSpace=wrap;html=1;fillColor=#000000;" vertex="1" parent="BsvsJpRvTjYnSgwSxDMs-61">
          <mxGeometry width="170" height="50" as="geometry" />
        </mxCell>
        <mxCell id="BsvsJpRvTjYnSgwSxDMs-63" value="" style="shape=image;verticalLabelPosition=bottom;labelBackgroundColor=default;verticalAlign=top;aspect=fixed;imageAspect=0;image=https://www.helenjoscott.com/wp-content/uploads/2022/01/mongodb_standard.png;" vertex="1" parent="BsvsJpRvTjYnSgwSxDMs-61">
          <mxGeometry x="8.53399999999997" y="2.857142857142857" width="152.93200000000002" height="42.160000000000004" as="geometry" />
        </mxCell>
        <mxCell id="BsvsJpRvTjYnSgwSxDMs-64" value="&lt;div&gt;ClientsService&lt;/div&gt;" style="rounded=1;whiteSpace=wrap;html=1;rotation=0;" vertex="1" parent="1">
          <mxGeometry x="1290" y="690" width="260" height="60" as="geometry" />
        </mxCell>
        <mxCell id="BsvsJpRvTjYnSgwSxDMs-65" value="UserRepository" style="rounded=1;whiteSpace=wrap;html=1;" vertex="1" parent="1">
          <mxGeometry x="1710" y="540" width="120" height="60" as="geometry" />
        </mxCell>
        <mxCell id="BsvsJpRvTjYnSgwSxDMs-66" value="MongoUserRepository" style="rounded=1;whiteSpace=wrap;html=1;" vertex="1" parent="1">
          <mxGeometry x="1900" y="540" width="160" height="60" as="geometry" />
        </mxCell>
        <mxCell id="BsvsJpRvTjYnSgwSxDMs-67" value="" style="group" vertex="1" connectable="0" parent="1">
          <mxGeometry x="1895" y="460" width="170" height="50" as="geometry" />
        </mxCell>
        <mxCell id="BsvsJpRvTjYnSgwSxDMs-68" value="" style="rounded=1;whiteSpace=wrap;html=1;fillColor=#000000;" vertex="1" parent="BsvsJpRvTjYnSgwSxDMs-67">
          <mxGeometry width="170" height="50" as="geometry" />
        </mxCell>
        <mxCell id="BsvsJpRvTjYnSgwSxDMs-69" value="" style="shape=image;verticalLabelPosition=bottom;labelBackgroundColor=default;verticalAlign=top;aspect=fixed;imageAspect=0;image=https://www.helenjoscott.com/wp-content/uploads/2022/01/mongodb_standard.png;" vertex="1" parent="BsvsJpRvTjYnSgwSxDMs-67">
          <mxGeometry x="8.53399999999997" y="2.857142857142857" width="152.93200000000002" height="42.160000000000004" as="geometry" />
        </mxCell>
        <mxCell id="BsvsJpRvTjYnSgwSxDMs-70" value="&lt;div&gt;UserService&lt;/div&gt;" style="rounded=1;whiteSpace=wrap;html=1;rotation=0;" vertex="1" parent="1">
          <mxGeometry x="1770" y="690" width="260" height="60" as="geometry" />
        </mxCell>
      </root>
    </mxGraphModel>
  </diagram>
</mxfile>
